<?xml version="1.0" encoding="UTF-8"?>
<svg id="Layer_1" xmlns="http://www.w3.org/2000/svg" version="1.1" viewBox="0 0 313 266">
  <!-- Generator: Adobe Illustrator 29.0.0, SVG Export Plug-In . SVG Version: 2.1.0 Build 186)  -->
  <defs>
    <style>
      .st0 {
        fill: #fff;
      }
    </style>
  </defs>
  <path class="st0" d="M29.3,154.1h213.3l-70.2,70.2c-8.4,8.3-8.4,21.8-.1,30.2,0,0,0,0,.1.1,8.3,8.3,21.8,8.3,30.1,0l91.5-91.7c8-8,12.5-18.8,12.6-30.1-.1-11.2-4.6-22-12.6-29.9L202.6,11.2c-8.4-8.3-21.9-8.3-30.2.1-8.3,8.4-8.3,21.9.1,30.2h0l70.2,70H29.3c-11.8,0-21.3,9.6-21.3,21.3s9.6,21.3,21.3,21.3Z"/>
</svg>